<svg width="48" height="48" viewBox="0 0 48 48" fill="none" xmlns="http://www.w3.org/2000/svg">
<path fill-rule="evenodd" clip-rule="evenodd" d="M10.8175 10H12.0292C13.033 10 13.8467 10.8137 13.8467 11.8175V36.0509C13.8467 37.0547 13.033 37.8684 12.0292 37.8684H10.8175C9.81372 37.8684 9 37.0547 9 36.0509V11.8175C9 10.8137 9.81372 10 10.8175 10ZM18.0872 10H36.2623C37.2661 10 38.0798 10.8137 38.0798 11.8175V36.0509C38.0798 37.0547 37.2661 37.8684 36.2623 37.8684H18.0872C17.0834 37.8684 16.2697 37.0547 16.2697 36.0509V11.8175C16.2697 10.8137 17.0834 10 18.0872 10ZM33.8392 18.4817C34.1738 18.4817 34.445 18.2105 34.445 17.8759C34.445 17.5413 34.1738 17.27 33.8392 17.27H26.5691C26.2345 17.27 25.9633 17.5413 25.9633 17.8759C25.9633 18.2105 26.2345 18.4817 26.5691 18.4817H33.8392ZM24.5743 16.2359C24.8108 16.4724 24.8108 16.8559 24.5743 17.0925L22.151 19.5159C21.9144 19.7524 21.5309 19.7524 21.2943 19.5159L20.0827 18.3042C19.8531 18.0665 19.8564 17.6886 20.09 17.4549C20.3237 17.2212 20.7016 17.2179 20.9393 17.4475L21.7227 18.2309L23.7177 16.2359C23.9543 15.9994 24.3377 15.9994 24.5743 16.2359ZM33.8392 24.54C34.1738 24.54 34.445 24.2688 34.445 23.9342C34.445 23.5996 34.1738 23.3284 33.8392 23.3284H26.5691C26.2345 23.3284 25.9633 23.5996 25.9633 23.9342C25.9633 24.2688 26.2345 24.54 26.5691 24.54H33.8392ZM24.5743 22.2942C24.8108 22.5308 24.8108 22.9143 24.5743 23.1509L22.151 25.5742C21.9144 25.8107 21.5309 25.8107 21.2943 25.5742L20.0827 24.3625C19.8531 24.1248 19.8564 23.7469 20.09 23.5133C20.3237 23.2796 20.7016 23.2763 20.9393 23.5059L21.7227 24.2892L23.7177 22.2942C23.9543 22.0577 24.3377 22.0577 24.5743 22.2942ZM33.8392 30.5984C34.1738 30.5984 34.445 30.3271 34.445 29.9925C34.445 29.6579 34.1738 29.3867 33.8392 29.3867H26.5691C26.2345 29.3867 25.9633 29.6579 25.9633 29.9925C25.9633 30.3271 26.2345 30.5984 26.5691 30.5984H33.8392ZM24.5743 28.3525C24.8108 28.5891 24.8108 28.9726 24.5743 29.2092L22.151 31.6325C21.9144 31.869 21.5309 31.869 21.2943 31.6325L20.0827 30.4209C19.8531 30.1831 19.8564 29.8053 20.09 29.5716C20.3237 29.3379 20.7016 29.3346 20.9393 29.5642L21.7227 30.3475L23.7177 28.3525C23.9543 28.116 24.3377 28.116 24.5743 28.3525Z" fill="#424a66"/>
</svg>
