<svg width="113" height="30" viewBox="0 0 113 30" fill="none" xmlns="http://www.w3.org/2000/svg">
<path d="M0.96 27.96H2.12C3.69333 27.96 4.48 27.48 4.48 26.52V3.52C4.48 2.56 3.69333 2.08 2.12 2.08H0.96V0.999998H11.88V2.08H10.72C9.94667 2.08 9.36 2.2 8.96 2.44C8.58667 2.65333 8.4 3.01333 8.4 3.52V25.76C8.4 26.8533 9.2 27.4 10.8 27.4H18.36C19.4533 27.4 20.28 26.76 20.84 25.48C21.4267 24.2 21.8 22.8933 21.96 21.56H23.08L22.4 29H0.96V27.96ZM38.5763 29.4C34.1496 29.4 30.7629 28.1467 28.4162 25.64C26.0696 23.1067 24.8962 19.56 24.8962 15C24.8962 10.4667 26.0696 6.93333 28.4162 4.4C30.7629 1.86667 34.1496 0.599998 38.5763 0.599998C42.9763 0.599998 46.3496 1.86667 48.6963 4.4C51.0429 6.93333 52.2163 10.4667 52.2163 15C52.2163 19.56 51.0429 23.1067 48.6963 25.64C46.3763 28.1467 43.0029 29.4 38.5763 29.4ZM38.5362 27.72C41.7362 27.72 44.1496 26.5867 45.7763 24.32C47.4296 22.0533 48.2562 18.9467 48.2562 15C48.2562 11.0533 47.4296 7.94667 45.7763 5.68C44.1496 3.41333 41.7362 2.28 38.5362 2.28C35.3629 2.28 32.9496 3.42667 31.2962 5.72C29.6696 7.98667 28.8562 11.08 28.8562 15C28.8562 18.9467 29.6696 22.0533 31.2962 24.32C32.9496 26.5867 35.3629 27.72 38.5362 27.72ZM69.2916 29.4C65.0516 29.4 61.7982 28.1467 59.5316 25.64C57.2649 23.1067 56.1316 19.56 56.1316 15C56.1316 12.0133 56.6649 9.44 57.7316 7.28C58.7982 5.12 60.3449 3.46667 62.3716 2.32C64.3982 1.17333 66.8249 0.599998 69.6516 0.599998C71.1182 0.599998 72.5582 0.826665 73.9716 1.28C75.4116 1.73333 76.5449 2.29333 77.3716 2.96C77.5849 3.09333 77.7316 3.16 77.8116 3.16C77.9716 3.16 78.0782 3.12 78.1316 3.04C78.1849 2.93333 78.2116 2.77333 78.2116 2.56V0.799998H79.6516V8.48H78.4916C78.2516 6.50667 77.3716 4.98667 75.8516 3.92C74.3582 2.82667 72.5316 2.28 70.3716 2.28C67.1182 2.28 64.5849 3.42667 62.7716 5.72C60.9849 8.01333 60.0916 11.1067 60.0916 15C60.0916 18.9733 60.9049 22.0933 62.5316 24.36C64.1849 26.6267 66.6382 27.76 69.8916 27.76C71.0382 27.76 72.2116 27.6267 73.4116 27.36C74.6116 27.0667 75.6249 26.5733 76.4516 25.88V17.92C76.4516 17.2 76.2116 16.6933 75.7316 16.4C75.2516 16.08 74.4782 15.92 73.4116 15.92H72.6916V15H82.6516V15.8H82.1716C81.3716 15.8 80.8382 16.0267 80.5716 16.48C80.3316 16.9067 80.2116 17.76 80.2116 19.04V26.24C78.7716 27.3067 77.1982 28.1067 75.4916 28.64C73.8116 29.1467 71.7449 29.4 69.2916 29.4ZM98.8872 29.4C94.4605 29.4 91.0739 28.1467 88.7272 25.64C86.3805 23.1067 85.2072 19.56 85.2072 15C85.2072 10.4667 86.3805 6.93333 88.7272 4.4C91.0739 1.86667 94.4605 0.599998 98.8872 0.599998C103.287 0.599998 106.661 1.86667 109.007 4.4C111.354 6.93333 112.527 10.4667 112.527 15C112.527 19.56 111.354 23.1067 109.007 25.64C106.687 28.1467 103.314 29.4 98.8872 29.4ZM98.8472 27.72C102.047 27.72 104.461 26.5867 106.087 24.32C107.741 22.0533 108.567 18.9467 108.567 15C108.567 11.0533 107.741 7.94667 106.087 5.68C104.461 3.41333 102.047 2.28 98.8472 2.28C95.6739 2.28 93.2605 3.42667 91.6072 5.72C89.9805 7.98667 89.1672 11.08 89.1672 15C89.1672 18.9467 89.9805 22.0533 91.6072 24.32C93.2605 26.5867 95.6739 27.72 98.8472 27.72Z" fill="#333333"/>
</svg>
