<svg width="48" height="48" viewBox="0 0 48 48" fill="none" xmlns="http://www.w3.org/2000/svg">
<path fill-rule="evenodd" clip-rule="evenodd" d="M13.4995 13.5L13.5 13.5L35.5 13.5H35.5005C36.6043 13.5012 37.4988 14.3957 37.5 15.4995V15.5V32.5V32.5005C37.4988 33.6043 36.6043 34.4988 35.5005 34.5H35.5H13.5H13.4995C12.3957 34.4988 11.5012 33.6043 11.5 32.5005L11.5 32.5V15.5L11.5 15.4995C11.5012 14.3957 12.3957 13.5012 13.4995 13.5ZM13.5003 14.5C12.9481 14.5007 12.5007 14.9481 12.5 15.5003V32.4997C12.5007 33.0519 12.9483 33.4994 13.5005 33.5H35.4995C36.0518 33.4994 36.4994 33.0518 36.5 32.4995V15.5005C36.4994 14.9483 36.0519 14.5007 35.4997 14.5H13.5003Z" fill="#424a66"/>
<circle cx="36" cy="15" r="6" fill="#F0F0F8" stroke="#424a66"/>
<path d="M34 15.5L36 17L39 13" stroke="#424a66" stroke-linecap="round" stroke-linejoin="round"/>
<path fill-rule="evenodd" clip-rule="evenodd" d="M15.5 19H19.5C19.7761 19 20 18.7761 20 18.5C20 18.2239 19.7761 18 19.5 18H15.5C15.2239 18 15 18.2239 15 18.5C15 18.7761 15.2239 19 15.5 19ZM21.5 18C21.2239 18 21 18.2239 21 18.5C21 18.7761 21.2239 19 21.5 19H25.5C25.7761 19 26 18.7761 26 18.5C26 18.2239 25.7761 18 25.5 18H21.5ZM26.5 30C25.1193 30 24 28.8807 24 27.5C24 26.1193 25.1193 25 26.5 25C27.8807 25 29 26.1193 29 27.5C29 28.8807 27.8807 30 26.5 30ZM29.2437 29.6489C29.6234 29.8763 30.0573 29.9976 30.5 30C31.8807 30 33 28.8807 33 27.5C33 26.1193 31.8807 25 30.5 25C30.0573 25.0024 29.6234 25.1236 29.2437 25.351C30.2522 26.6062 30.2522 28.3937 29.2437 29.6489Z" fill="#424a66"/>
</svg>
