<svg width="48" height="48" viewBox="0 0 48 48" fill="none" xmlns="http://www.w3.org/2000/svg">
<path d="M20.2948 14.3966L20.2946 14.3964L20.2853 14.4063C19.8518 14.8634 19.1483 14.8783 18.6666 14.4271C18.2313 13.987 18.2329 13.2495 18.6713 12.8116L23.6792 7.8089C24.1286 7.39021 24.91 7.40557 25.3082 7.80336L30.3217 12.8116C30.7617 13.2511 30.7617 13.9923 30.3217 14.4318C30.0943 14.6591 29.7963 14.7794 29.51 14.7794C29.2236 14.7794 28.9257 14.6591 28.6983 14.4318L26.5093 12.2452L25.6559 11.3927V12.5989V19.7938C25.6559 20.4342 25.1388 20.9514 24.4965 20.9514C23.8542 20.9514 23.3371 20.4342 23.3371 19.7938V12.5636V11.3574L22.4838 12.2099L20.2948 14.3966Z" stroke="#424a66"/>
<path d="M16.6314 19.1524L16.6341 19.1495C17.0692 18.6917 17.7792 18.677 18.2621 19.1039C18.7304 19.552 18.7492 20.2547 18.3085 20.7195L18.3079 20.7201L15.3069 23.8943L14.5094 24.7378H15.6702H33.3233H34.4841L33.6866 23.8943L30.6856 20.7201L30.6851 20.7195C30.2427 20.253 30.2633 19.5468 30.7366 19.099C31.2039 18.6567 31.9117 18.6774 32.3603 19.1504L32.362 19.1522L32.373 19.164L32.4162 19.2101L32.5806 19.3856L33.1708 20.0156L34.9929 21.9608C36.3395 23.3987 37.7419 24.8965 37.9706 25.1425C38.3736 25.5761 38.599 26.1054 38.4563 26.6044L38.4562 26.6044L38.4543 26.6114L35.1369 38.8799C34.9488 39.5171 34.364 39.9616 33.7117 39.9616H15.2819C14.6295 39.9616 14.0448 39.5171 13.8566 38.8798L10.5392 26.6114L10.5393 26.6114L10.5373 26.6044C10.4691 26.366 10.4972 26.091 10.6002 25.8141C10.7035 25.5366 10.8676 25.2982 11.0101 25.1558L11.0178 25.1481L11.0252 25.1401C11.217 24.9311 12.6175 23.4353 13.9741 21.9874C14.6515 21.2644 15.3168 20.5546 15.8127 20.0256L16.4099 19.3886L16.5764 19.211L16.6202 19.1643L16.6314 19.1524ZM18.7419 36.8351C19.6177 36.8351 20.3364 36.1179 20.3364 35.2417V29.4929C20.3364 28.6167 19.6177 27.8995 18.7419 27.8995C17.866 27.8995 17.1474 28.6167 17.1474 29.4929V35.2417C17.1474 36.1179 17.866 36.8351 18.7419 36.8351ZM24.4968 36.8351C25.3726 36.8351 26.0913 36.1179 26.0913 35.2417V29.4929C26.0913 28.6167 25.3726 27.8995 24.4968 27.8995C23.6209 27.8995 22.9023 28.6167 22.9023 29.4929V35.2417C22.9023 36.1179 23.6209 36.8351 24.4968 36.8351ZM30.2517 36.8351C31.1275 36.8351 31.8462 36.1179 31.8462 35.2417V29.4929C31.8462 28.6167 31.1275 27.8995 30.2517 27.8995C29.3758 27.8995 28.6572 28.6167 28.6572 29.4929V35.2417C28.6572 36.1179 29.3758 36.8351 30.2517 36.8351Z" stroke="#424a66"/>
</svg>
